<?xml version="1.0" encoding="iso-8859-1"?>
<!-- Uploaded to: SVG Repo, www.svgrepo.com, Generator: SVG Repo Mixer Tools -->
<svg version="1.1" id="Layer_1" xmlns="http://www.w3.org/2000/svg" xmlns:xlink="http://www.w3.org/1999/xlink" 
	 viewBox="0 0 512 512" xml:space="preserve">
<g>
	<path style="fill:#2BA5F7;" d="M484.891,113.587v274.711H308.786H203.189H27.097V113.587c0-15.981,12.968-28.937,28.949-28.937
		h399.895C471.935,84.65,484.891,97.606,484.891,113.587z M452.78,345.047V116.761H59.208v228.286H452.78z"/>
	<path style="fill:#2BA5F7;" d="M512,377.158v22.268c0,15.426-12.511,27.924-27.937,27.924H27.937
		C12.499,427.35,0,414.851,0,399.426v-22.268h27.097h176.093h105.596h176.105H512z"/>
</g>
<g>
	<path style="fill:#2197D8;" d="M81.859,377.158V84.662H54.391c-14.843,0-26.875,12.032-26.875,26.875v265.621h-0.42H0v22.268
		c0,15.426,12.499,27.924,27.937,27.924h49.719c-15.438,0-27.937-12.499-27.937-27.924v-22.268L81.859,377.158L81.859,377.158z"/>
	<path style="fill:#2197D8;" d="M308.786,377.158v11.14c0,8.275-6.694,14.981-14.969,14.981h-75.646
		c-8.275,0-14.981-6.706-14.981-14.981v-11.14H308.786z"/>
	<rect x="53.033" y="110.586" style="fill:#2197D8;" width="405.922" height="240.636"/>
</g>
<rect x="59.208" y="116.761" style="fill:#CCCCCC;" width="393.572" height="228.286"/>
<rect x="444.134" y="116.761" style="fill:#B3B3B3;" width="8.645" height="228.286"/>
<g>
	<rect x="93.9" y="156.888" style="fill:#666666;" width="131.532" height="18.526"/>
	<rect x="93.9" y="197.644" style="fill:#666666;" width="324.187" height="18.526"/>
	<rect x="93.9" y="238.401" style="fill:#666666;" width="324.187" height="18.526"/>
	<rect x="93.9" y="279.157" style="fill:#666666;" width="324.187" height="18.526"/>
</g>
</svg>