<?xml version="1.0" encoding="iso-8859-1"?>
<!-- Uploaded to: SVG Repo, www.svgrepo.com, Generator: SVG Repo Mixer Tools -->
<svg height="800px" width="800px" version="1.1" id="Layer_1" xmlns="http://www.w3.org/2000/svg" xmlns:xlink="http://www.w3.org/1999/xlink" 
	 viewBox="0 0 512 512" xml:space="preserve">
<g transform="translate(1 1)">
	<path style="fill:#FCC309;" d="M213.187,400.067c1.707,5.12,6.827,8.533,11.947,8.533H293.4c5.12,0,10.24-3.413,11.947-8.533H485.4
		V101.4c0-14.507-11.093-25.6-25.6-25.6H50.2c-14.507,0-25.6,11.093-25.6,25.6v298.667H213.187z"/>
	<path style="fill:#FFFFFF;" d="M67.267,75.8H50.2c-14.507,0-25.6,11.093-25.6,25.6v298.667h17.067V101.4
		C41.667,86.893,52.76,75.8,67.267,75.8"/>
	<path style="fill:#FD9808;" d="M442.733,75.8H459.8c14.507,0,25.6,11.093,25.6,25.6v298.667h-17.067V101.4
		C468.333,86.893,457.24,75.8,442.733,75.8"/>
	<path style="fill:#FFDD09;" d="M305.347,400.067c-1.707,5.12-6.827,8.533-11.947,8.533h-68.267c-5.12,0-10.24-3.413-11.947-8.533
		H12.653c-2.56,0-5.12,2.56-5.12,5.12v23.893c0,2.56,2.56,5.12,5.12,5.12h484.693c2.56,0,5.12-2.56,5.12-5.12v-23.893
		c0-2.56-2.56-5.12-5.12-5.12L305.347,400.067L305.347,400.067z"/>
	<path style="fill:#FD9808;" d="M497.347,400.067h-25.6c2.56,0,5.12,2.56,5.12,5.12v23.893c0,2.56-2.56,5.12-5.12,5.12h25.6
		c2.56,0,5.12-2.56,5.12-5.12v-23.893C502.467,402.627,499.907,400.067,497.347,400.067"/>
	<path style="fill:#FFFFFF;" d="M12.653,434.2h25.6c-2.56,0-5.12-2.56-5.12-5.12v-23.893c0-2.56,2.56-5.12,5.12-5.12h-25.6
		c-2.56,0-5.12,2.56-5.12,5.12v23.893C7.533,431.64,10.093,434.2,12.653,434.2"/>
	<polygon style="fill:#FFDD09;" points="58.733,365.933 451.267,365.933 451.267,109.933 58.733,109.933 	"/>
	<polygon style="fill:#FD9808;" points="425.667,365.933 451.267,365.933 451.267,109.933 425.667,109.933 	"/>
	<path d="M497.347,442.733H12.653C4.973,442.733-1,436.76-1,429.08v-23.893c0-7.68,5.973-13.653,13.653-13.653H219.16l1.707,5.973
		c0.853,1.707,1.707,2.56,4.267,2.56H293.4c1.707,0,3.413-1.707,4.267-2.56l1.707-5.973h197.973c7.68,0,13.653,5.973,13.653,13.653
		v23.893C511,436.76,505.027,442.733,497.347,442.733z M16.067,425.667h477.867V408.6H310.467c-4.267,5.12-10.24,8.533-17.067,8.533
		h-68.267c-6.827,0-12.8-3.413-17.067-8.533h-192V425.667z"/>
	<path d="M293.4,417.133h-68.267c-6.827,0-12.8-3.413-17.067-8.533h-192V101.4c0-18.773,15.36-34.133,34.133-34.133h409.6
		c18.773,0,34.133,15.36,34.133,34.133v307.2H310.467C306.2,413.72,300.227,417.133,293.4,417.133z M33.133,391.533H219.16
		l1.707,5.973c0.853,1.707,1.707,2.56,4.267,2.56H293.4c1.707,0,3.413-1.707,4.267-2.56l1.707-5.973h177.493V101.4
		c0-9.387-7.68-17.067-17.067-17.067H50.2c-9.387,0-17.067,7.68-17.067,17.067V391.533z"/>
	<path d="M451.267,374.467H58.733c-5.12,0-8.533-3.413-8.533-8.533v-256c0-5.12,3.413-8.533,8.533-8.533h392.533
		c5.12,0,8.533,3.413,8.533,8.533v256C459.8,371.053,456.387,374.467,451.267,374.467z M67.267,357.4h375.467V118.467H67.267V357.4z
		"/>
	<path d="M212.333,297.667c-2.56,0-4.267-0.853-5.973-2.56l-51.2-51.2c-0.853-0.853-1.707-1.707-2.56-3.413
		c-1.707-3.413-0.853-6.827,1.707-9.387l51.2-51.2c3.413-3.413,8.533-3.413,11.947,0s3.413,8.533,0,11.947l-44.373,46.08
		l45.227,45.227c3.413,3.413,3.413,8.533,0,11.947C216.6,296.813,214.893,297.667,212.333,297.667z"/>
	<path d="M297.667,297.667c-2.56,0-4.267-0.853-5.973-2.56c-3.413-3.413-3.413-8.533,0-11.947l45.227-45.227l-45.227-45.227
		c-3.413-3.413-3.413-8.533,0-11.947c3.413-3.413,8.533-3.413,11.947,0l51.2,51.2c3.413,3.413,3.413,8.533,0,11.947l-51.2,51.2
		C301.933,296.813,300.227,297.667,297.667,297.667z"/>
	<path d="M246.467,297.667c-0.853,0-0.853,0-1.707,0c-4.267-0.853-7.68-5.12-6.827-10.24L255,185.027
		c0.853-4.267,5.12-7.68,10.24-6.827c4.267,0.853,7.68,5.12,6.827,10.24L255,290.84
		C254.147,295.107,250.733,297.667,246.467,297.667z"/>
</g>
</svg>